<svg xmlns="http://www.w3.org/2000/svg">    
    <symbol id="icon-your" viewBox="0 0 34 34">
        <path d="M6.66667 16.6667L16.6667 6.66667L26.6667 16.6667L16.6667 26.6667L6.66667 16.6667Z" fill="#CAFF33"/>
        <path d="M33.3333 10L26.6667 16.6667V6.66667H16.6667L23.3333 0H33.3333V10Z" fill="#CAFF33"/>
        <path d="M33.3333 23.3333L26.6667 16.6667V26.6667H16.6667L23.3333 33.3333H33.3333V23.3333Z" fill="#CAFF33"/>
        <path d="M0 23.3333L6.66667 16.6667V26.6667H16.6667L10 33.3333H0L0 23.3333Z" fill="#CAFF33"/>
        <path d="M0 10L6.66667 16.6667V6.66667H16.6667L10 0H0L0 10Z" fill="#CAFF33"/>
    </symbol>

    <symbol id="icon-mini-arrow" viewBox="0 0 13 8">
        <path d="M11.707 0.707153L6.20703 6.20715L0.707031 0.707154" stroke="white" stroke-width="2"/>
    </symbol>

    <symbol id="icon-arrow-six" viewBox="0 0 20 19">
        <path d="M18.7083 9.5H1M1 9.5L9.5 1M1 9.5L9.5 18" stroke="#CAFF33" stroke-width="2" stroke-linecap="round" stroke-linejoin="round"/>
    </symbol>

     <symbol id="icon-arrow-six-reverse" viewBox="0 0 20 19">
        <path d="M1.00016 9.5H18.7085M18.7085 9.5L10.2085 1M18.7085 9.5L10.2085 18" stroke="#CAFF33" stroke-width="2" stroke-linecap="round" stroke-linejoin="round"/>
    </symbol>

    <symbol id="icon-location" viewBox="0 0 17 21">
        <path fill-rule="evenodd" clip-rule="evenodd" d="M7.78975 20.101C7.81995 20.1185 7.84369 20.1321 7.8605 20.1415L7.88843 20.1571C8.1113 20.2794 8.38776 20.2785 8.61084 20.1575L8.6395 20.1415C8.65631 20.1321 8.68005 20.1185 8.71025 20.101C8.77066 20.066 8.85697 20.015 8.9655 19.9482C9.18246 19.8146 9.48875 19.6176 9.85461 19.3591C10.5851 18.8431 11.5597 18.0774 12.5365 17.0773C14.4807 15.0868 16.5 12.0962 16.5 8.25C16.5 3.69365 12.8063 0 8.25 0C3.69365 0 0 3.69365 0 8.25C0 12.0962 2.01932 15.0868 3.96346 17.0773C4.94025 18.0774 5.91491 18.8431 6.64539 19.3591C7.01125 19.6176 7.31754 19.8146 7.5345 19.9482C7.64303 20.015 7.72934 20.066 7.78975 20.101ZM8.25 11.25C9.90685 11.25 11.25 9.90685 11.25 8.25C11.25 6.59315 9.90685 5.25 8.25 5.25C6.59315 5.25 5.25 6.59315 5.25 8.25C5.25 9.90685 6.59315 11.25 8.25 11.25Z" fill="#CAFF33"/>
    </symbol>

    <symbol id="icon-phone" viewBox="0 0 21 21">
        <path fill-rule="evenodd" clip-rule="evenodd" d="M0 3C0 1.34315 1.34315 0 3 0H4.37163C5.232 0 5.98197 0.585557 6.19064 1.42025L7.29644 5.84343C7.47941 6.5753 7.20594 7.34555 6.60242 7.79818L5.3088 8.7684C5.17447 8.86915 5.14527 9.01668 5.183 9.11969C6.31851 12.2195 8.78051 14.6815 11.8803 15.817C11.9833 15.8547 12.1309 15.8255 12.2316 15.6912L13.2018 14.3976C13.6545 13.7941 14.4247 13.5206 15.1566 13.7036L19.5798 14.8094C20.4144 15.018 21 15.768 21 16.6284V18C21 19.6569 19.6569 21 18 21H15.75C7.05151 21 0 13.9485 0 5.25V3Z" fill="#CAFF33"/>
    </symbol>

    <symbol id="icon-fb" viewBox="0 0 24 24">
        <path d="M24 12C24 5.37258 18.6274 0 12 0C5.37258 0 0 5.37258 0 12C0 17.9895 4.3882 22.954 10.125 23.8542V15.4687H7.07812V12H10.125V9.35625C10.125 6.34875 11.9166 4.6875 14.6576 4.6875C15.9701 4.6875 17.3438 4.92187 17.3438 4.92187V7.875H15.8306C14.34 7.875 13.875 8.80008 13.875 9.75V12H17.2031L16.6711 15.4687H13.875V23.8542C19.6118 22.954 24 17.9895 24 12Z" fill="#262626"/>
    </symbol>

    <symbol id="icon-twitter" viewBox="0 0 24 20">
        <path d="M7.55016 19.5007C16.6045 19.5007 21.5583 11.9974 21.5583 5.49259C21.5583 5.28166 21.5536 5.06603 21.5442 4.85509C22.5079 4.15819 23.3395 3.29499 24 2.30603C23.1025 2.70533 22.1496 2.96611 21.1739 3.07947C22.2013 2.46364 22.9705 1.4962 23.3391 0.356499C22.3726 0.92929 21.3156 1.33334 20.2134 1.55134C19.4708 0.762293 18.489 0.239849 17.4197 0.0647834C16.3504 -0.110282 15.2532 0.0717828 14.2977 0.582829C13.3423 1.09387 12.5818 1.90544 12.1338 2.89204C11.6859 3.87865 11.5754 4.98535 11.8195 6.04103C9.86249 5.94282 7.94794 5.43444 6.19998 4.54883C4.45203 3.66323 2.90969 2.42017 1.67297 0.900249C1.0444 1.98398 0.852057 3.26638 1.13503 4.48682C1.418 5.70727 2.15506 6.77418 3.19641 7.47072C2.41463 7.4459 1.64998 7.23541 0.965625 6.85666V6.91759C0.964925 8.05488 1.3581 9.15732 2.07831 10.0375C2.79852 10.9177 3.80132 11.5213 4.91625 11.7457C4.19206 11.9439 3.43198 11.9727 2.69484 11.8301C3.00945 12.8082 3.62157 13.6636 4.44577 14.2771C5.26997 14.8905 6.26512 15.2313 7.29234 15.252C5.54842 16.6218 3.39417 17.3649 1.17656 17.3613C0.783287 17.3607 0.390399 17.3366 0 17.2892C2.25286 18.7345 4.87353 19.5021 7.55016 19.5007Z" fill="#262626"/>
    </symbol>

    <symbol id="icon-linkedin" viewBox="0 0 24 24">
        <path d="M22.2234 0H1.77187C0.792187 0 0 0.773438 0 1.72969V22.2656C0 23.2219 0.792187 24 1.77187 24H22.2234C23.2031 24 24 23.2219 24 22.2703V1.72969C24 0.773438 23.2031 0 22.2234 0ZM7.12031 20.4516H3.55781V8.99531H7.12031V20.4516ZM5.33906 7.43438C4.19531 7.43438 3.27188 6.51094 3.27188 5.37187C3.27188 4.23281 4.19531 3.30937 5.33906 3.30937C6.47813 3.30937 7.40156 4.23281 7.40156 5.37187C7.40156 6.50625 6.47813 7.43438 5.33906 7.43438ZM20.4516 20.4516H16.8937V14.8828C16.8937 13.5562 16.8703 11.8453 15.0422 11.8453C13.1906 11.8453 12.9094 13.2937 12.9094 14.7891V20.4516H9.35625V8.99531H12.7687V10.5609H12.8156C13.2891 9.66094 14.4516 8.70938 16.1813 8.70938C19.7859 8.70938 20.4516 11.0813 20.4516 14.1656V20.4516Z" fill="#262626"/>
    </symbol>

    <symbol id="icon-chemodanchuk" viewBox="0 0 19 16">
        <path d="M8.03827 10.3168C7.47672 10.3168 7.14779 10.0007 7.14779 9.4334V8.77696C4.78926 8.61486 2.43875 8.12862 0 7.19659V5.85942C3.00031 7.1885 6.00864 7.65856 9.28171 7.65856C12.5628 7.65856 15.5711 7.1885 18.5714 5.85942V7.19659C16.1327 8.12862 13.7822 8.61486 11.4236 8.77696V9.4334C11.4236 10.0007 11.0947 10.3168 10.5332 10.3168H8.03827ZM2.47886 15.7061H16.0926C17.7532 15.7061 18.5714 14.8957 18.5714 13.2343V5.34885C18.5714 3.68746 17.7532 2.87703 16.0926 2.87703H2.47886C0.826287 2.87703 0 3.68746 0 5.34885V13.2343C0 14.8957 0.826287 15.7061 2.47886 15.7061ZM5.21444 3.58211H6.45788V2.14764C6.45788 1.53171 6.81889 1.18323 7.44462 1.18323H11.1268C11.7526 1.18323 12.1055 1.53171 12.1055 2.14764V3.5659H13.349V2.23679C13.349 0.713179 12.5547 0 11.1028 0H7.46064C6.08886 0 5.21444 0.713179 5.21444 2.23679V3.58211Z" fill="#B3B3B3"/>
    </symbol>

    <symbol id="icon-download" viewBox="0 0 98 98">
        <svg width="98" height="98" viewBox="0 0 98 98" fill="none" xmlns="http://www.w3.org/2000/svg">
        <rect width="98" height="98" rx="49" fill="url(#paint0_linear_11_86901)" fill-opacity="0.05"/>
        <rect x="12" y="12" width="74" height="74" rx="37" fill="url(#paint1_linear_11_86901)" fill-opacity="0.1"/>
        <rect x="12.5" y="12.5" width="73" height="73" rx="36.5" stroke="url(#paint2_linear_11_86901)" stroke-opacity="0.2"/>
        <path d="M36.7812 36.25C35.3142 36.25 34.125 37.4392 34.125 38.9062V39.9688C34.125 41.4358 35.3142 42.625 36.7812 42.625H61.2188C62.6858 42.625 63.875 41.4358 63.875 39.9688V38.9062C63.875 37.4392 62.6858 36.25 61.2188 36.25H36.7812Z" fill="#CAFF33"/>
        <path fill-rule="evenodd" clip-rule="evenodd" d="M36.373 44.75L37.1376 57.7496C37.2698 59.996 39.13 61.75 41.3803 61.75H56.6193C58.8696 61.75 60.7298 59.996 60.8619 57.7496L61.6266 44.75H36.373ZM49 46.875C49.5868 46.875 50.0625 47.3507 50.0625 47.9375V54.9349L52.4987 52.4987C52.9136 52.0838 53.5864 52.0838 54.0013 52.4987C54.4162 52.9136 54.4162 53.5864 54.0013 54.0013L49.7513 58.2513C49.3364 58.6662 48.6636 58.6662 48.2487 58.2513L43.9987 54.0013C43.5838 53.5864 43.5838 52.9136 43.9987 52.4987C44.4136 52.0838 45.0864 52.0838 45.5013 52.4987L47.9375 54.9349V47.9375C47.9375 47.3507 48.4132 46.875 49 46.875Z" fill="#CAFF33"/>
        <defs>
        <linearGradient id="paint0_linear_11_86901" x1="49" y1="0" x2="49" y2="98" gradientUnits="userSpaceOnUse">
        <stop stop-color="#CAFF33"/>
        <stop offset="1" stop-color="#CAFF33" stop-opacity="0"/>
        </linearGradient>
        <linearGradient id="paint1_linear_11_86901" x1="49" y1="-37" x2="49" y2="203" gradientUnits="userSpaceOnUse">
        <stop stop-color="#CAFF33"/>
        <stop offset="0.467671" stop-color="#CAFF33" stop-opacity="0"/>
        </linearGradient>
        <linearGradient id="paint2_linear_11_86901" x1="49" y1="-116.5" x2="49" y2="153" gradientUnits="userSpaceOnUse">
        <stop stop-color="#CAFF33"/>
        <stop offset="0.716291" stop-color="#CAFF33" stop-opacity="0"/>
        </linearGradient>
        </defs>
        </svg>
    </symbol>

    <symbol id="icon-google" viewBox="0 0 68 68">
        <g>
            <svg width="68" height="68" viewBox="0 0 68 68" fill="none" xmlns="http://www.w3.org/2000/svg">
            <rect width="68" height="68" rx="34" fill="url(#paint0_linear_116_11704)" fill-opacity="0.05"/>
            <rect x="8" y="8" width="52" height="52" rx="26" fill="url(#paint1_linear_116_11704)" fill-opacity="0.1"/>
            <rect x="8.5" y="8.5" width="51" height="51" rx="25.5" stroke="url(#paint2_linear_116_11704)" stroke-opacity="0.2"/>
            <g clip-path="url(#clip0_116_11704)">
            <path d="M45.7643 34.2765C45.7643 33.4608 45.6982 32.6406 45.5571 31.8381H34.2383V36.4591H40.72C40.451 37.9495 39.5868 39.2679 38.3213 40.1056V43.104H42.1883C44.4591 41.014 45.7643 37.9274 45.7643 34.2765Z" fill="#CAFF33"/>
            <path d="M34.2391 46.0008C37.4756 46.0008 40.205 44.9382 42.1936 43.1039L38.3266 40.1055C37.2507 40.8375 35.8618 41.252 34.2435 41.252C31.1129 41.252 28.4585 39.1399 27.5061 36.3003H23.5156V39.3912C25.5527 43.4434 29.7019 46.0008 34.2391 46.0008Z" fill="#CAFF33"/>
            <path d="M27.5008 36.3002C26.9982 34.8099 26.9982 33.196 27.5008 31.7057V28.6147H23.5148C21.8128 32.0055 21.8128 36.0004 23.5148 39.3912L27.5008 36.3002Z" fill="#CAFF33"/>
            <path d="M34.2391 26.7497C35.9499 26.7232 37.6034 27.367 38.8425 28.5487L42.2685 25.1226C40.0991 23.0855 37.2198 21.9655 34.2391 22.0008C29.7019 22.0008 25.5527 24.5582 23.5156 28.6148L27.5017 31.7058C28.4497 28.8617 31.1085 26.7497 34.2391 26.7497Z" fill="#CAFF33"/>
            </g>
            <defs>
            <linearGradient id="paint0_linear_116_11704" x1="34" y1="0" x2="34" y2="68" gradientUnits="userSpaceOnUse">
            <stop stop-color="#CAFF33"/>
            <stop offset="1" stop-color="#CAFF33" stop-opacity="0"/>
            </linearGradient>
            <linearGradient id="paint1_linear_116_11704" x1="34" y1="-26.4324" x2="34" y2="142.216" gradientUnits="userSpaceOnUse">
            <stop stop-color="#CAFF33"/>
            <stop offset="0.467671" stop-color="#CAFF33" stop-opacity="0"/>
            </linearGradient>
            <linearGradient id="paint2_linear_116_11704" x1="34" y1="-82.2973" x2="34" y2="107.081" gradientUnits="userSpaceOnUse">
            <stop stop-color="#CAFF33"/>
            <stop offset="0.716291" stop-color="#CAFF33" stop-opacity="0"/>
            </linearGradient>
            <clipPath id="clip0_116_11704">
            <rect width="24" height="24" fill="white" transform="translate(22 22)"/>
            </clipPath>
            </defs>
            </svg>
        </g>
    </symbol>
    
    <symbol id="icon-facebook" viewBox="0 0 68 68">
        <g>
            <svg width="68" height="68" viewBox="0 0 68 68" fill="none" xmlns="http://www.w3.org/2000/svg">
            <rect width="68" height="68" rx="34" fill="url(#paint0_linear_116_11711)" fill-opacity="0.05"/>
            <rect x="8" y="8" width="52" height="52" rx="26" fill="url(#paint1_linear_116_11711)" fill-opacity="0.1"/>
            <rect x="8.5" y="8.5" width="51" height="51" rx="25.5" stroke="url(#paint2_linear_116_11711)" stroke-opacity="0.2"/>
            <g clip-path="url(#clip0_116_11711)">
            <path d="M46 34C46 27.3726 40.6274 22 34 22C27.3726 22 22 27.3726 22 34C22 39.9895 26.3882 44.954 32.125 45.8542V37.4688H29.0781V34H32.125V31.3563C32.125 28.3488 33.9166 26.6875 36.6576 26.6875C37.9701 26.6875 39.3438 26.9219 39.3438 26.9219V29.875H37.8306C36.34 29.875 35.875 30.8001 35.875 31.75V34H39.2031L38.6711 37.4688H35.875V45.8542C41.6118 44.954 46 39.9895 46 34Z" fill="#CAFF33"/>
            <path d="M38.6711 37.4688L39.2031 34H35.875V31.75C35.875 30.801 36.34 29.875 37.8306 29.875H39.3438V26.9219C39.3438 26.9219 37.9705 26.6875 36.6576 26.6875C33.9166 26.6875 32.125 28.3488 32.125 31.3563V34H29.0781V37.4688H32.125V45.8542C33.3674 46.0486 34.6326 46.0486 35.875 45.8542V37.4688H38.6711Z" fill="#1C1C1C"/>
            </g>
            <defs>
            <linearGradient id="paint0_linear_116_11711" x1="34" y1="0" x2="34" y2="68" gradientUnits="userSpaceOnUse">
            <stop stop-color="#CAFF33"/>
            <stop offset="1" stop-color="#CAFF33" stop-opacity="0"/>
            </linearGradient>
            <linearGradient id="paint1_linear_116_11711" x1="34" y1="-26.4324" x2="34" y2="142.216" gradientUnits="userSpaceOnUse">
            <stop stop-color="#CAFF33"/>
            <stop offset="0.467671" stop-color="#CAFF33" stop-opacity="0"/>
            </linearGradient>
            <linearGradient id="paint2_linear_116_11711" x1="34" y1="-82.2973" x2="34" y2="107.081" gradientUnits="userSpaceOnUse">
            <stop stop-color="#CAFF33"/>
            <stop offset="0.716291" stop-color="#CAFF33" stop-opacity="0"/>
            </linearGradient>
            <clipPath id="clip0_116_11711">
            <rect width="24" height="24" fill="white" transform="translate(22 22)"/>
            </clipPath>
            </defs>
            </svg>
        </g>
    </symbol>

    <symbol id="icon-apple" viewBox="0 0 68 68">
        <g>
            <svg width="68" height="68" viewBox="0 0 68 68" fill="none" xmlns="http://www.w3.org/2000/svg">
            <rect width="68" height="68" rx="34" fill="url(#paint0_linear_116_11716)" fill-opacity="0.05"/>
            <rect x="8" y="8" width="52" height="52" rx="26" fill="url(#paint1_linear_116_11716)" fill-opacity="0.1"/>
            <rect x="8.5" y="8.5" width="51" height="51" rx="25.5" stroke="url(#paint2_linear_116_11716)" stroke-opacity="0.2"/>
            <path d="M42.8418 39.1449C42.5091 39.9135 42.1153 40.6211 41.659 41.2715C41.0371 42.1583 40.5278 42.7721 40.1354 43.113C39.527 43.6724 38.8752 43.959 38.1772 43.9753C37.6761 43.9753 37.0718 43.8327 36.3684 43.5434C35.6626 43.2555 35.014 43.113 34.421 43.113C33.7991 43.113 33.132 43.2555 32.4185 43.5434C31.704 43.8327 31.1283 43.9834 30.6882 43.9984C30.0188 44.0269 29.3517 43.7322 28.6857 43.113C28.2607 42.7422 27.729 42.1067 27.0921 41.2063C26.4088 40.2449 25.847 39.13 25.4069 37.8589C24.9355 36.486 24.6992 35.1565 24.6992 33.8694C24.6992 32.3951 25.0178 31.1235 25.6559 30.0578C26.1574 29.2019 26.8246 28.5267 27.6596 28.0311C28.4946 27.5354 29.3969 27.2828 30.3685 27.2666C30.9002 27.2666 31.5974 27.4311 32.4637 27.7543C33.3277 28.0786 33.8824 28.243 34.1256 28.243C34.3075 28.243 34.9237 28.0507 35.9684 27.6674C36.9564 27.3119 37.7902 27.1647 38.4732 27.2226C40.3241 27.372 41.7147 28.1017 42.6395 29.4162C40.9841 30.4192 40.1653 31.824 40.1816 33.6262C40.1965 35.03 40.7057 36.1981 41.7066 37.1256C42.1601 37.5561 42.6667 37.8888 43.2302 38.1251C43.108 38.4795 42.979 38.819 42.8418 39.1449ZM38.5968 22.4404C38.5968 23.5406 38.1948 24.5679 37.3936 25.5188C36.4267 26.6492 35.2572 27.3024 33.989 27.1993C33.9729 27.0673 33.9635 26.9284 33.9635 26.7824C33.9635 25.7261 34.4233 24.5958 35.2399 23.6715C35.6475 23.2036 36.166 22.8145 36.7948 22.5041C37.4221 22.1983 38.0156 22.0292 38.5737 22.0002C38.59 22.1473 38.5968 22.2944 38.5968 22.4404V22.4404Z" fill="#CAFF33"/>
            <defs>
            <linearGradient id="paint0_linear_116_11716" x1="34" y1="0" x2="34" y2="68" gradientUnits="userSpaceOnUse">
            <stop stop-color="#CAFF33"/>
            <stop offset="1" stop-color="#CAFF33" stop-opacity="0"/>
            </linearGradient>
            <linearGradient id="paint1_linear_116_11716" x1="34" y1="-26.4324" x2="34" y2="142.216" gradientUnits="userSpaceOnUse">
            <stop stop-color="#CAFF33"/>
            <stop offset="0.467671" stop-color="#CAFF33" stop-opacity="0"/>
            </linearGradient>
            <linearGradient id="paint2_linear_116_11716" x1="34" y1="-82.2973" x2="34" y2="107.081" gradientUnits="userSpaceOnUse">
            <stop stop-color="#CAFF33"/>
            <stop offset="0.716291" stop-color="#CAFF33" stop-opacity="0"/>
            </linearGradient>
            </defs>
            </svg>
        </g>
    </symbol>

    <symbol id="icon-cubes" viewBox="0 0 68 68">
        <g>
            <svg width="68" height="68" viewBox="0 0 68 68" fill="none" xmlns="http://www.w3.org/2000/svg">
            <rect width="68" height="68" rx="34" fill="url(#paint0_linear_116_11304)" fill-opacity="0.05"/>
            <rect x="8" y="8" width="52" height="52" rx="26" fill="url(#paint1_linear_116_11304)" fill-opacity="0.1"/>
            <rect x="8.5" y="8.5" width="51" height="51" rx="25.5" stroke="url(#paint2_linear_116_11304)" stroke-opacity="0.2"/>
            <path d="M28 25C26.3431 25 25 26.3431 25 28V30.25C25 31.9069 26.3431 33.25 28 33.25H30.25C31.9069 33.25 33.25 31.9069 33.25 30.25V28C33.25 26.3431 31.9069 25 30.25 25H28Z" fill="#CAFF33"/>
            <path d="M37.75 25C36.0931 25 34.75 26.3431 34.75 28V30.25C34.75 31.9069 36.0931 33.25 37.75 33.25H40C41.6569 33.25 43 31.9069 43 30.25V28C43 26.3431 41.6569 25 40 25H37.75Z" fill="#CAFF33"/>
            <path d="M28 34.75C26.3431 34.75 25 36.0931 25 37.75V40C25 41.6569 26.3431 43 28 43H30.25C31.9069 43 33.25 41.6569 33.25 40V37.75C33.25 36.0931 31.9069 34.75 30.25 34.75H28Z" fill="#CAFF33"/>
            <path d="M39.625 35.5C39.625 35.0858 39.2892 34.75 38.875 34.75C38.4608 34.75 38.125 35.0858 38.125 35.5V38.125H35.5C35.0858 38.125 34.75 38.4608 34.75 38.875C34.75 39.2892 35.0858 39.625 35.5 39.625H38.125V42.25C38.125 42.6642 38.4608 43 38.875 43C39.2892 43 39.625 42.6642 39.625 42.25V39.625H42.25C42.6642 39.625 43 39.2892 43 38.875C43 38.4608 42.6642 38.125 42.25 38.125H39.625V35.5Z" fill="#CAFF33"/>
            <defs>
            <linearGradient id="paint0_linear_116_11304" x1="34" y1="0" x2="34" y2="68" gradientUnits="userSpaceOnUse">
            <stop stop-color="#CAFF33"/>
            <stop offset="1" stop-color="#CAFF33" stop-opacity="0"/>
            </linearGradient>
            <linearGradient id="paint1_linear_116_11304" x1="34" y1="-26.4324" x2="34" y2="142.216" gradientUnits="userSpaceOnUse">
            <stop stop-color="#CAFF33"/>
            <stop offset="0.467671" stop-color="#CAFF33" stop-opacity="0"/>
            </linearGradient>
            <linearGradient id="paint2_linear_116_11304" x1="34" y1="-82.2973" x2="34" y2="107.081" gradientUnits="userSpaceOnUse">
            <stop stop-color="#CAFF33"/>
            <stop offset="0.716291" stop-color="#CAFF33" stop-opacity="0"/>
            </linearGradient>
            </defs>
            </svg>
        </g>
    </symbol>
    
    <symbol id="icon-sharu" viewBox="0 0 68 68">
        <g>
            <svg width="68" height="68" viewBox="0 0 68 68" fill="none" xmlns="http://www.w3.org/2000/svg">
            <rect width="68" height="68" rx="34" fill="url(#paint0_linear_116_11312)" fill-opacity="0.05"/>
            <rect x="8" y="8" width="52" height="52" rx="26" fill="url(#paint1_linear_116_11312)" fill-opacity="0.1"/>
            <rect x="8.5" y="8.5" width="51" height="51" rx="25.5" stroke="url(#paint2_linear_116_11312)" stroke-opacity="0.2"/>
            <path d="M33.6444 23.5896C33.8664 23.4701 34.1336 23.4701 34.3556 23.5896L44.1056 28.8396C44.3485 28.9705 44.5 29.2241 44.5 29.5C44.5 29.7759 44.3485 30.0295 44.1056 30.1604L34.3556 35.4104C34.1336 35.5299 33.8664 35.5299 33.6444 35.4104L23.8944 30.1604C23.6515 30.0295 23.5 29.7759 23.5 29.5C23.5 29.2241 23.6515 28.9705 23.8944 28.8396L33.6444 23.5896Z" fill="#CAFF33"/>
            <path d="M25.2647 32.6018L32.9333 36.731C33.5992 37.0896 34.4008 37.0896 35.0667 36.7311L42.7353 32.6018L44.1056 33.3396C44.3485 33.4704 44.5 33.7241 44.5 34C44.5 34.2759 44.3485 34.5295 44.1056 34.6603L34.3556 39.9103C34.1336 40.0299 33.8664 40.0299 33.6444 39.9103L23.8944 34.6603C23.6515 34.5295 23.5 34.2759 23.5 34C23.5 33.7241 23.6515 33.4704 23.8944 33.3396L25.2647 32.6018Z" fill="#CAFF33"/>
            <path d="M32.9333 41.231L25.2647 37.1018L23.8944 37.8396C23.6515 37.9704 23.5 38.2241 23.5 38.5C23.5 38.7759 23.6515 39.0295 23.8944 39.1603L33.6444 44.4103C33.8664 44.5299 34.1336 44.5299 34.3556 44.4103L44.1056 39.1603C44.3485 39.0295 44.5 38.7759 44.5 38.5C44.5 38.2241 44.3485 37.9704 44.1056 37.8396L42.7353 37.1018L35.0667 41.2311C34.4008 41.5896 33.5992 41.5896 32.9333 41.231Z" fill="#CAFF33"/>
            <defs>
            <linearGradient id="paint0_linear_116_11312" x1="34" y1="0" x2="34" y2="68" gradientUnits="userSpaceOnUse">
            <stop stop-color="#CAFF33"/>
            <stop offset="1" stop-color="#CAFF33" stop-opacity="0"/>
            </linearGradient>
            <linearGradient id="paint1_linear_116_11312" x1="34" y1="-26.4324" x2="34" y2="142.216" gradientUnits="userSpaceOnUse">
            <stop stop-color="#CAFF33"/>
            <stop offset="0.467671" stop-color="#CAFF33" stop-opacity="0"/>
            </linearGradient>
            <linearGradient id="paint2_linear_116_11312" x1="34" y1="-82.2973" x2="34" y2="107.081" gradientUnits="userSpaceOnUse">
            <stop stop-color="#CAFF33"/>
            <stop offset="0.716291" stop-color="#CAFF33" stop-opacity="0"/>
            </linearGradient>
            </defs>
            </svg>
        </g>
    </symbol>

        <symbol id="icon-stars" viewBox="0 0 68 68">
        <g>
            <svg width="68" height="68" viewBox="0 0 68 68" fill="none" xmlns="http://www.w3.org/2000/svg">
            <rect width="68" height="68" rx="34" fill="url(#paint0_linear_116_11321)" fill-opacity="0.05"/>
            <rect x="8" y="8" width="52" height="52" rx="26" fill="url(#paint1_linear_116_11321)" fill-opacity="0.1"/>
            <rect x="8.5" y="8.5" width="51" height="51" rx="25.5" stroke="url(#paint2_linear_116_11321)" stroke-opacity="0.2"/>
            <path fill-rule="evenodd" clip-rule="evenodd" d="M31 26.5C31.3349 26.5 31.6291 26.722 31.7211 27.044L32.5343 29.8902C32.8903 31.1359 33.8641 32.1097 35.1099 32.4657L37.956 33.2789C38.278 33.3709 38.5 33.6651 38.5 34C38.5 34.3349 38.278 34.6291 37.956 34.7211L35.1098 35.5343C33.8641 35.8903 32.8903 36.8641 32.5343 38.1099L31.7211 40.956C31.6291 41.278 31.3349 41.5 31 41.5C30.6651 41.5 30.3709 41.278 30.2789 40.956L29.4657 38.1099C29.1097 36.8641 28.1359 35.8903 26.8901 35.5343L24.044 34.7211C23.722 34.6291 23.5 34.3349 23.5 34C23.5 33.6651 23.722 33.3709 24.044 33.2789L26.8901 32.4657C28.1359 32.1097 29.1097 31.1359 29.4657 29.8901L30.2789 27.044C30.3709 26.722 30.6651 26.5 31 26.5Z" fill="#CAFF33"/>
            <path fill-rule="evenodd" clip-rule="evenodd" d="M40 23.5C40.3442 23.5 40.6441 23.7342 40.7276 24.0681L40.9865 25.1036C41.2216 26.0441 41.9559 26.7784 42.8964 27.0135L43.9319 27.2724C44.2658 27.3559 44.5 27.6558 44.5 28C44.5 28.3442 44.2658 28.6441 43.9319 28.7276L42.8964 28.9865C41.9559 29.2216 41.2216 29.9559 40.9865 30.8964L40.7276 31.9319C40.6441 32.2658 40.3442 32.5 40 32.5C39.6558 32.5 39.3559 32.2658 39.2724 31.9319L39.0135 30.8964C38.7784 29.9559 38.0441 29.2216 37.1036 28.9865L36.0681 28.7276C35.7342 28.6441 35.5 28.3442 35.5 28C35.5 27.6558 35.7342 27.3559 36.0681 27.2724L37.1036 27.0135C38.0441 26.7784 38.7784 26.0441 39.0135 25.1036L39.2724 24.0681C39.3559 23.7342 39.6558 23.5 40 23.5Z" fill="#CAFF33"/>
            <path fill-rule="evenodd" clip-rule="evenodd" d="M38.5 37C38.8228 37 39.1094 37.2066 39.2115 37.5128L39.6058 38.6956C39.7551 39.1435 40.1065 39.4949 40.5544 39.6442L41.7372 40.0385C42.0434 40.1406 42.25 40.4272 42.25 40.75C42.25 41.0728 42.0434 41.3594 41.7372 41.4615L40.5544 41.8558C40.1065 42.0051 39.7551 42.3565 39.6058 42.8044L39.2115 43.9872C39.1094 44.2934 38.8228 44.5 38.5 44.5C38.1772 44.5 37.8906 44.2934 37.7885 43.9872L37.3942 42.8044C37.2449 42.3565 36.8935 42.0051 36.4456 41.8558L35.2628 41.4615C34.9566 41.3594 34.75 41.0728 34.75 40.75C34.75 40.4272 34.9566 40.1406 35.2628 40.0385L36.4456 39.6442C36.8935 39.4949 37.2449 39.1435 37.3942 38.6956L37.7885 37.5128C37.8906 37.2066 38.1772 37 38.5 37Z" fill="#CAFF33"/>
            <defs>
            <linearGradient id="paint0_linear_116_11321" x1="34" y1="0" x2="34" y2="68" gradientUnits="userSpaceOnUse">
            <stop stop-color="#CAFF33"/>
            <stop offset="1" stop-color="#CAFF33" stop-opacity="0"/>
            </linearGradient>
            <linearGradient id="paint1_linear_116_11321" x1="34" y1="-26.4324" x2="34" y2="142.216" gradientUnits="userSpaceOnUse">
            <stop stop-color="#CAFF33"/>
            <stop offset="0.467671" stop-color="#CAFF33" stop-opacity="0"/>
            </linearGradient>
            <linearGradient id="paint2_linear_116_11321" x1="34" y1="-82.2973" x2="34" y2="107.081" gradientUnits="userSpaceOnUse">
            <stop stop-color="#CAFF33"/>
            <stop offset="0.716291" stop-color="#CAFF33" stop-opacity="0"/>
            </linearGradient>
            </defs>
            </svg>
        </g>
    </symbol>

        <symbol id="icon-symbol" viewBox="0 0 68 68">
        <g>
            <svg width="68" height="68" viewBox="0 0 68 68" fill="none" xmlns="http://www.w3.org/2000/svg">
            <rect width="68" height="68" rx="34" fill="url(#paint0_linear_116_11329)" fill-opacity="0.05"/>
            <rect x="8" y="8" width="52" height="52" rx="26" fill="url(#paint1_linear_116_11329)" fill-opacity="0.1"/>
            <rect x="8.5" y="8.5" width="51" height="51" rx="25.5" stroke="url(#paint2_linear_116_11329)" stroke-opacity="0.2"/>
            <path fill-rule="evenodd" clip-rule="evenodd" d="M34 24.25C28.6152 24.25 24.25 28.6152 24.25 34C24.25 39.3848 28.6152 43.75 34 43.75C39.3848 43.75 43.75 39.3848 43.75 34C43.75 28.6152 39.3848 24.25 34 24.25ZM31 29.5C30.5858 29.5 30.25 29.8358 30.25 30.25C30.25 30.6642 30.5858 31 31 31H32.5C33.4797 31 34.3131 31.6261 34.622 32.5H31C30.5858 32.5 30.25 32.8358 30.25 33.25C30.25 33.6642 30.5858 34 31 34H34.622C34.3131 34.8739 33.4797 35.5 32.5 35.5H31C30.6967 35.5 30.4232 35.6827 30.3071 35.963C30.191 36.2432 30.2552 36.5658 30.4697 36.7803L33.4697 39.7803C33.7626 40.0732 34.2374 40.0732 34.5303 39.7803C34.8232 39.4874 34.8232 39.0126 34.5303 38.7197L32.7989 36.9883C34.4785 36.8558 35.8468 35.6168 36.175 34H37C37.4142 34 37.75 33.6642 37.75 33.25C37.75 32.8358 37.4142 32.5 37 32.5H36.175C36.0625 31.9458 35.8278 31.4361 35.5003 31H37C37.4142 31 37.75 30.6642 37.75 30.25C37.75 29.8358 37.4142 29.5 37 29.5H31Z" fill="#CAFF33"/>
            <defs>
            <linearGradient id="paint0_linear_116_11329" x1="34" y1="0" x2="34" y2="68" gradientUnits="userSpaceOnUse">
            <stop stop-color="#CAFF33"/>
            <stop offset="1" stop-color="#CAFF33" stop-opacity="0"/>
            </linearGradient>
            <linearGradient id="paint1_linear_116_11329" x1="34" y1="-26.4324" x2="34" y2="142.216" gradientUnits="userSpaceOnUse">
            <stop stop-color="#CAFF33"/>
            <stop offset="0.467671" stop-color="#CAFF33" stop-opacity="0"/>
            </linearGradient>
            <linearGradient id="paint2_linear_116_11329" x1="34" y1="-82.2973" x2="34" y2="107.081" gradientUnits="userSpaceOnUse">
            <stop stop-color="#CAFF33"/>
            <stop offset="0.716291" stop-color="#CAFF33" stop-opacity="0"/>
            </linearGradient>
            </defs>
            </svg>
        </g>
    </symbol>

    <symbol id="btn-menu" viewBox="0 0 21 14">
        <path fill-rule="evenodd" clip-rule="evenodd" d="M0 0.875C0 0.391751 0.391751 0 0.875 0H20.125C20.6082 0 21 0.391751 21 0.875C21 1.35825 20.6082 1.75 20.125 1.75H0.875C0.391751 1.75 0 1.35825 0 0.875ZM0 7C0 6.51675 0.391751 6.125 0.875 6.125H20.125C20.6082 6.125 21 6.51675 21 7C21 7.48325 20.6082 7.875 20.125 7.875H0.875C0.391751 7.875 0 7.48325 0 7ZM9.625 13.125C9.625 12.6418 10.0168 12.25 10.5 12.25H20.125C20.6082 12.25 21 12.6418 21 13.125C21 13.6082 20.6082 14 20.125 14H10.5C10.0168 14 9.625 13.6082 9.625 13.125Z" fill="#333333"/>
    </symbol>

    <symbol id="icon-chain" viewBox="0 0 76 76">
        <g>
            <svg width="76" height="76" viewBox="0 0 76 76" fill="none" xmlns="http://www.w3.org/2000/svg">
            <rect width="72" height="72" rx="36" fill="url(#paint0_linear_113_9598)" fill-opacity="0.05"/>
            <rect x="8" y="8" width="56" height="56" rx="28" fill="url(#paint1_linear_113_9598)" fill-opacity="0.1"/>
            <rect x="8.5" y="8.5" width="55" height="55" rx="27.5" stroke="url(#paint2_linear_113_9598)" stroke-opacity="0.2"/>
            <path fill-rule="evenodd" clip-rule="evenodd" d="M26.25 26.25C25.8358 26.25 25.5 26.5858 25.5 27C25.5 27.4142 25.8358 27.75 26.25 27.75H27V38.25C27 39.9069 28.3431 41.25 30 41.25H31.2094L30.0385 44.7628C29.9075 45.1558 30.1199 45.5805 30.5128 45.7115C30.9058 45.8425 31.3305 45.6301 31.4615 45.2372L31.7906 44.25H40.2094L40.5385 45.2372C40.6695 45.6301 41.0942 45.8425 41.4872 45.7115C41.8801 45.5805 42.0925 45.1558 41.9615 44.7628L40.7906 41.25H42C43.6569 41.25 45 39.9069 45 38.25V27.75H45.75C46.1642 27.75 46.5 27.4142 46.5 27C46.5 26.5858 46.1642 26.25 45.75 26.25H26.25ZM32.2906 42.75L32.7906 41.25H39.2094L39.7094 42.75H32.2906ZM39.75 30.75C39.75 30.3358 39.4142 30 39 30C38.5858 30 38.25 30.3358 38.25 30.75V36.75C38.25 37.1642 38.5858 37.5 39 37.5C39.4142 37.5 39.75 37.1642 39.75 36.75V30.75ZM36.75 33C36.75 32.5858 36.4142 32.25 36 32.25C35.5858 32.25 35.25 32.5858 35.25 33V36.75C35.25 37.1642 35.5858 37.5 36 37.5C36.4142 37.5 36.75 37.1642 36.75 36.75V33ZM33.75 35.25C33.75 34.8358 33.4142 34.5 33 34.5C32.5858 34.5 32.25 34.8358 32.25 35.25V36.75C32.25 37.1642 32.5858 37.5 33 37.5C33.4142 37.5 33.75 37.1642 33.75 36.75V35.25Z" fill="#CAFF33"/>
            <defs>
            <linearGradient id="paint0_linear_113_9598" x1="36" y1="0" x2="36" y2="72" gradientUnits="userSpaceOnUse">
            <stop stop-color="#CAFF33"/>
            <stop offset="1" stop-color="#CAFF33" stop-opacity="0"/>
            </linearGradient>
            <linearGradient id="paint1_linear_113_9598" x1="36" y1="-29.0811" x2="36" y2="152.541" gradientUnits="userSpaceOnUse">
            <stop stop-color="#CAFF33"/>
            <stop offset="0.467671" stop-color="#CAFF33" stop-opacity="0"/>
            </linearGradient>
            <linearGradient id="paint2_linear_113_9598" x1="36" y1="-89.2432" x2="36" y2="114.703" gradientUnits="userSpaceOnUse">
            <stop stop-color="#CAFF33"/>
            <stop offset="0.716291" stop-color="#CAFF33" stop-opacity="0"/>
            </linearGradient>
            </defs>
            </svg>
        </g>
    </symbol>

    <symbol id="icon-lompochka" viewBox="0 0 76 76">
        <g>
            <svg width="76" height="76" viewBox="0 0 76 76" fill="none" xmlns="http://www.w3.org/2000/svg">
            <rect width="76" height="76" rx="38" fill="url(#paint0_linear_113_7210)" fill-opacity="0.05"/>
            <rect x="8" y="8" width="60" height="60" rx="30" fill="url(#paint1_linear_113_7210)" fill-opacity="0.1"/>
            <rect x="8.5" y="8.5" width="59" height="59" rx="29.5" stroke="url(#paint2_linear_113_7210)" stroke-opacity="0.2"/>
            <path d="M38 24.875C32.6843 24.875 28.375 29.1843 28.375 34.5C28.375 38.0592 30.3074 41.1661 33.176 42.8305C33.9757 43.2945 34.4765 44.0065 34.4992 44.723C34.5117 45.1182 34.7877 45.4559 35.1725 45.5469C35.5824 45.6437 36.0002 45.72 36.4245 45.7745C36.8021 45.823 37.1252 45.5206 37.1252 45.14V39.7021C36.7527 39.6609 36.3877 39.5937 36.0321 39.5021C35.5641 39.3817 35.2824 38.9046 35.4028 38.4367C35.5233 37.9687 36.0003 37.6869 36.4683 37.8074C36.9569 37.9331 37.4701 38.0002 38.0002 38.0002C38.5304 38.0002 39.0435 37.9331 39.5321 37.8074C40.0001 37.6869 40.4771 37.9687 40.5976 38.4367C40.718 38.9046 40.4363 39.3817 39.9683 39.5021C39.6127 39.5937 39.2477 39.6609 38.8752 39.7021V45.1399C38.8752 45.5206 39.1984 45.823 39.5759 45.7745C40.0001 45.72 40.4177 45.6437 40.8275 45.5469C41.2123 45.4559 41.4883 45.1182 41.5008 44.723C41.5235 44.0065 42.0243 43.2945 42.824 42.8305C45.6926 41.1661 47.625 38.0592 47.625 34.5C47.625 29.1843 43.3157 24.875 38 24.875Z" fill="#CAFF33"/>
            <path fill-rule="evenodd" clip-rule="evenodd" d="M34.5153 47.2163C34.6054 46.7415 35.0633 46.4296 35.5381 46.5197C36.3349 46.6708 37.1578 46.75 38 46.75C38.8422 46.75 39.6651 46.6708 40.4619 46.5197C40.9367 46.4296 41.3946 46.7415 41.4847 47.2163C41.5747 47.691 41.2629 48.1489 40.7881 48.239C39.8843 48.4104 38.9522 48.5 38 48.5C37.0478 48.5 36.1157 48.4104 35.2119 48.239C34.7371 48.1489 34.4253 47.691 34.5153 47.2163Z" fill="#CAFF33"/>
            <path fill-rule="evenodd" clip-rule="evenodd" d="M35.3797 50.068C35.43 49.5873 35.8604 49.2385 36.341 49.2887C36.886 49.3458 37.4394 49.375 38 49.375C38.5606 49.375 39.114 49.3458 39.659 49.2887C40.1396 49.2385 40.57 49.5873 40.6203 50.068C40.6705 50.5486 40.3217 50.979 39.841 51.0292C39.2357 51.0926 38.6215 51.125 38 51.125C37.3785 51.125 36.7643 51.0926 36.159 51.0292C35.6783 50.979 35.3295 50.5486 35.3797 50.068Z" fill="#CAFF33"/>
            <defs>
            <linearGradient id="paint0_linear_113_7210" x1="38" y1="0" x2="38" y2="76" gradientUnits="userSpaceOnUse">
            <stop stop-color="#CAFF33"/>
            <stop offset="1" stop-color="#CAFF33" stop-opacity="0"/>
            </linearGradient>
            <linearGradient id="paint1_linear_113_7210" x1="38" y1="-31.7297" x2="38" y2="162.865" gradientUnits="userSpaceOnUse">
            <stop stop-color="#CAFF33"/>
            <stop offset="0.467671" stop-color="#CAFF33" stop-opacity="0"/>
            </linearGradient>
            <linearGradient id="paint2_linear_113_7210" x1="38" y1="-96.1892" x2="38" y2="122.324" gradientUnits="userSpaceOnUse">
            <stop stop-color="#CAFF33"/>
            <stop offset="0.716291" stop-color="#CAFF33" stop-opacity="0"/>
            </linearGradient>
            </defs>
            </svg>
        </g>
    </symbol>

    <symbol id="icon-sharu" viewBox="0 0 68 68">
        <g>
            <svg width="68" height="68" viewBox="0 0 68 68" fill="none" xmlns="http://www.w3.org/2000/svg">
            <rect width="68" height="68" rx="34" fill="url(#paint0_linear_116_11312)" fill-opacity="0.05"/>
            <rect x="8" y="8" width="52" height="52" rx="26" fill="url(#paint1_linear_116_11312)" fill-opacity="0.1"/>
            <rect x="8.5" y="8.5" width="51" height="51" rx="25.5" stroke="url(#paint2_linear_116_11312)" stroke-opacity="0.2"/>
            <path d="M33.6444 23.5896C33.8664 23.4701 34.1336 23.4701 34.3556 23.5896L44.1056 28.8396C44.3485 28.9705 44.5 29.2241 44.5 29.5C44.5 29.7759 44.3485 30.0295 44.1056 30.1604L34.3556 35.4104C34.1336 35.5299 33.8664 35.5299 33.6444 35.4104L23.8944 30.1604C23.6515 30.0295 23.5 29.7759 23.5 29.5C23.5 29.2241 23.6515 28.9705 23.8944 28.8396L33.6444 23.5896Z" fill="#CAFF33"/>
            <path d="M25.2647 32.6018L32.9333 36.731C33.5992 37.0896 34.4008 37.0896 35.0667 36.7311L42.7353 32.6018L44.1056 33.3396C44.3485 33.4704 44.5 33.7241 44.5 34C44.5 34.2759 44.3485 34.5295 44.1056 34.6603L34.3556 39.9103C34.1336 40.0299 33.8664 40.0299 33.6444 39.9103L23.8944 34.6603C23.6515 34.5295 23.5 34.2759 23.5 34C23.5 33.7241 23.6515 33.4704 23.8944 33.3396L25.2647 32.6018Z" fill="#CAFF33"/>
            <path d="M32.9333 41.231L25.2647 37.1018L23.8944 37.8396C23.6515 37.9704 23.5 38.2241 23.5 38.5C23.5 38.7759 23.6515 39.0295 23.8944 39.1603L33.6444 44.4103C33.8664 44.5299 34.1336 44.5299 34.3556 44.4103L44.1056 39.1603C44.3485 39.0295 44.5 38.7759 44.5 38.5C44.5 38.2241 44.3485 37.9704 44.1056 37.8396L42.7353 37.1018L35.0667 41.2311C34.4008 41.5896 33.5992 41.5896 32.9333 41.231Z" fill="#CAFF33"/>
            <defs>
            <linearGradient id="paint0_linear_116_11312" x1="34" y1="0" x2="34" y2="68" gradientUnits="userSpaceOnUse">
            <stop stop-color="#CAFF33"/>
            <stop offset="1" stop-color="#CAFF33" stop-opacity="0"/>
            </linearGradient>
            <linearGradient id="paint1_linear_116_11312" x1="34" y1="-26.4324" x2="34" y2="142.216" gradientUnits="userSpaceOnUse">
            <stop stop-color="#CAFF33"/>
            <stop offset="0.467671" stop-color="#CAFF33" stop-opacity="0"/>
            </linearGradient>
            <linearGradient id="paint2_linear_116_11312" x1="34" y1="-82.2973" x2="34" y2="107.081" gradientUnits="userSpaceOnUse">
            <stop stop-color="#CAFF33"/>
            <stop offset="0.716291" stop-color="#CAFF33" stop-opacity="0"/>
            </linearGradient>
            </defs>
            </svg>
        </g>
    </symbol>



</svg>