<svg xmlns="http://www.w3.org/2000/svg">    
    <symbol id="icon-your" viewBox="0 0 34 34">
        <path d="M6.66667 16.6667L16.6667 6.66667L26.6667 16.6667L16.6667 26.6667L6.66667 16.6667Z" fill="#CAFF33"/>
        <path d="M33.3333 10L26.6667 16.6667V6.66667H16.6667L23.3333 0H33.3333V10Z" fill="#CAFF33"/>
        <path d="M33.3333 23.3333L26.6667 16.6667V26.6667H16.6667L23.3333 33.3333H33.3333V23.3333Z" fill="#CAFF33"/>
        <path d="M0 23.3333L6.66667 16.6667V26.6667H16.6667L10 33.3333H0L0 23.3333Z" fill="#CAFF33"/>
        <path d="M0 10L6.66667 16.6667V6.66667H16.6667L10 0H0L0 10Z" fill="#CAFF33"/>
    </symbol>

    <symbol id="icon-mini-arrow" viewBox="0 0 13 8">
        <path d="M11.707 0.707153L6.20703 6.20715L0.707031 0.707154" stroke="white" stroke-width="2"/>
    </symbol>

    <symbol id="icon-arrow-six" viewBox="0 0 20 19">
        <path d="M18.7083 9.5H1M1 9.5L9.5 1M1 9.5L9.5 18" stroke="#CAFF33" stroke-width="2" stroke-linecap="round" stroke-linejoin="round"/>
    </symbol>

     <symbol id="icon-arrow-six-reverse" viewBox="0 0 20 19">
        <path d="M1.00016 9.5H18.7085M18.7085 9.5L10.2085 1M18.7085 9.5L10.2085 18" stroke="#CAFF33" stroke-width="2" stroke-linecap="round" stroke-linejoin="round"/>
    </symbol>

    <symbol id="icon-location" viewBox="0 0 17 21">
        <path fill-rule="evenodd" clip-rule="evenodd" d="M7.78975 20.101C7.81995 20.1185 7.84369 20.1321 7.8605 20.1415L7.88843 20.1571C8.1113 20.2794 8.38776 20.2785 8.61084 20.1575L8.6395 20.1415C8.65631 20.1321 8.68005 20.1185 8.71025 20.101C8.77066 20.066 8.85697 20.015 8.9655 19.9482C9.18246 19.8146 9.48875 19.6176 9.85461 19.3591C10.5851 18.8431 11.5597 18.0774 12.5365 17.0773C14.4807 15.0868 16.5 12.0962 16.5 8.25C16.5 3.69365 12.8063 0 8.25 0C3.69365 0 0 3.69365 0 8.25C0 12.0962 2.01932 15.0868 3.96346 17.0773C4.94025 18.0774 5.91491 18.8431 6.64539 19.3591C7.01125 19.6176 7.31754 19.8146 7.5345 19.9482C7.64303 20.015 7.72934 20.066 7.78975 20.101ZM8.25 11.25C9.90685 11.25 11.25 9.90685 11.25 8.25C11.25 6.59315 9.90685 5.25 8.25 5.25C6.59315 5.25 5.25 6.59315 5.25 8.25C5.25 9.90685 6.59315 11.25 8.25 11.25Z" fill="#CAFF33"/>
    </symbol>


    <symbol id="icon-phone" viewBox="0 0 21 21">
        <path fill-rule="evenodd" clip-rule="evenodd" d="M0 3C0 1.34315 1.34315 0 3 0H4.37163C5.232 0 5.98197 0.585557 6.19064 1.42025L7.29644 5.84343C7.47941 6.5753 7.20594 7.34555 6.60242 7.79818L5.3088 8.7684C5.17447 8.86915 5.14527 9.01668 5.183 9.11969C6.31851 12.2195 8.78051 14.6815 11.8803 15.817C11.9833 15.8547 12.1309 15.8255 12.2316 15.6912L13.2018 14.3976C13.6545 13.7941 14.4247 13.5206 15.1566 13.7036L19.5798 14.8094C20.4144 15.018 21 15.768 21 16.6284V18C21 19.6569 19.6569 21 18 21H15.75C7.05151 21 0 13.9485 0 5.25V3Z" fill="#CAFF33"/>
    </symbol>

    <symbol id="icon-fb" viewBox="0 0 24 24">
        <path d="M24 12C24 5.37258 18.6274 0 12 0C5.37258 0 0 5.37258 0 12C0 17.9895 4.3882 22.954 10.125 23.8542V15.4687H7.07812V12H10.125V9.35625C10.125 6.34875 11.9166 4.6875 14.6576 4.6875C15.9701 4.6875 17.3438 4.92187 17.3438 4.92187V7.875H15.8306C14.34 7.875 13.875 8.80008 13.875 9.75V12H17.2031L16.6711 15.4687H13.875V23.8542C19.6118 22.954 24 17.9895 24 12Z" fill="#262626"/>
    </symbol>

    <symbol id="icon-twitter" viewBox="0 0 24 20">
        <path d="M7.55016 19.5007C16.6045 19.5007 21.5583 11.9974 21.5583 5.49259C21.5583 5.28166 21.5536 5.06603 21.5442 4.85509C22.5079 4.15819 23.3395 3.29499 24 2.30603C23.1025 2.70533 22.1496 2.96611 21.1739 3.07947C22.2013 2.46364 22.9705 1.4962 23.3391 0.356499C22.3726 0.92929 21.3156 1.33334 20.2134 1.55134C19.4708 0.762293 18.489 0.239849 17.4197 0.0647834C16.3504 -0.110282 15.2532 0.0717828 14.2977 0.582829C13.3423 1.09387 12.5818 1.90544 12.1338 2.89204C11.6859 3.87865 11.5754 4.98535 11.8195 6.04103C9.86249 5.94282 7.94794 5.43444 6.19998 4.54883C4.45203 3.66323 2.90969 2.42017 1.67297 0.900249C1.0444 1.98398 0.852057 3.26638 1.13503 4.48682C1.418 5.70727 2.15506 6.77418 3.19641 7.47072C2.41463 7.4459 1.64998 7.23541 0.965625 6.85666V6.91759C0.964925 8.05488 1.3581 9.15732 2.07831 10.0375C2.79852 10.9177 3.80132 11.5213 4.91625 11.7457C4.19206 11.9439 3.43198 11.9727 2.69484 11.8301C3.00945 12.8082 3.62157 13.6636 4.44577 14.2771C5.26997 14.8905 6.26512 15.2313 7.29234 15.252C5.54842 16.6218 3.39417 17.3649 1.17656 17.3613C0.783287 17.3607 0.390399 17.3366 0 17.2892C2.25286 18.7345 4.87353 19.5021 7.55016 19.5007Z" fill="#262626"/>
    </symbol>

    <symbol id="icon-linkedin" viewBox="0 0 24 24">
        <path d="M22.2234 0H1.77187C0.792187 0 0 0.773438 0 1.72969V22.2656C0 23.2219 0.792187 24 1.77187 24H22.2234C23.2031 24 24 23.2219 24 22.2703V1.72969C24 0.773438 23.2031 0 22.2234 0ZM7.12031 20.4516H3.55781V8.99531H7.12031V20.4516ZM5.33906 7.43438C4.19531 7.43438 3.27188 6.51094 3.27188 5.37187C3.27188 4.23281 4.19531 3.30937 5.33906 3.30937C6.47813 3.30937 7.40156 4.23281 7.40156 5.37187C7.40156 6.50625 6.47813 7.43438 5.33906 7.43438ZM20.4516 20.4516H16.8937V14.8828C16.8937 13.5562 16.8703 11.8453 15.0422 11.8453C13.1906 11.8453 12.9094 13.2937 12.9094 14.7891V20.4516H9.35625V8.99531H12.7687V10.5609H12.8156C13.2891 9.66094 14.4516 8.70938 16.1813 8.70938C19.7859 8.70938 20.4516 11.0813 20.4516 14.1656V20.4516Z" fill="#262626"/>
    </symbol>

    <symbol id="icon-chemodanchuk" viewBox="0 0 19 16">
        <path d="M8.03827 10.3168C7.47672 10.3168 7.14779 10.0007 7.14779 9.4334V8.77696C4.78926 8.61486 2.43875 8.12862 0 7.19659V5.85942C3.00031 7.1885 6.00864 7.65856 9.28171 7.65856C12.5628 7.65856 15.5711 7.1885 18.5714 5.85942V7.19659C16.1327 8.12862 13.7822 8.61486 11.4236 8.77696V9.4334C11.4236 10.0007 11.0947 10.3168 10.5332 10.3168H8.03827ZM2.47886 15.7061H16.0926C17.7532 15.7061 18.5714 14.8957 18.5714 13.2343V5.34885C18.5714 3.68746 17.7532 2.87703 16.0926 2.87703H2.47886C0.826287 2.87703 0 3.68746 0 5.34885V13.2343C0 14.8957 0.826287 15.7061 2.47886 15.7061ZM5.21444 3.58211H6.45788V2.14764C6.45788 1.53171 6.81889 1.18323 7.44462 1.18323H11.1268C11.7526 1.18323 12.1055 1.53171 12.1055 2.14764V3.5659H13.349V2.23679C13.349 0.713179 12.5547 0 11.1028 0H7.46064C6.08886 0 5.21444 0.713179 5.21444 2.23679V3.58211Z" fill="#B3B3B3"/>
    </symbol>

    <symbol id="icon-download" viewBox="0 0 72 72">
        <g>
            <svg width="72" height="72" viewBox="0 0 72 72" fill="none" xmlns="http://www.w3.org/2000/svg">
            <rect width="72" height="72" rx="36" fill="url(#paint0_linear_104_2429)" fill-opacity="0.05"/>
            <rect x="8" y="8" width="56" height="56" rx="28" fill="url(#paint1_linear_104_2429)" fill-opacity="0.1"/>
            <rect x="8.5" y="8.5" width="55" height="55" rx="27.5" stroke="url(#paint2_linear_104_2429)" stroke-opacity="0.2"/>
            <path d="M25.9375 25.5C24.7294 25.5 23.75 26.4794 23.75 27.6875V28.5625C23.75 29.7706 24.7294 30.75 25.9375 30.75H46.0625C47.2706 30.75 48.25 29.7706 48.25 28.5625V27.6875C48.25 26.4794 47.2706 25.5 46.0625 25.5H25.9375Z" fill="#CAFF33"/>
            <path fill-rule="evenodd" clip-rule="evenodd" d="M25.6013 32.5L26.231 43.2055C26.3398 45.0555 27.8718 46.5 29.725 46.5H42.2747C44.1279 46.5 45.6598 45.0555 45.7687 43.2055L46.3984 32.5H25.6013ZM36 34.25C36.4832 34.25 36.875 34.6418 36.875 35.125V40.8876L38.8813 38.8813C39.223 38.5396 39.777 38.5396 40.1187 38.8813C40.4604 39.223 40.4604 39.777 40.1187 40.1187L36.6187 43.6187C36.277 43.9604 35.723 43.9604 35.3813 43.6187L31.8813 40.1187C31.5396 39.777 31.5396 39.223 31.8813 38.8813C32.223 38.5396 32.777 38.5396 33.1187 38.8813L35.125 40.8876V35.125C35.125 34.6418 35.5168 34.25 36 34.25Z" fill="#CAFF33"/>
            <defs>
            <linearGradient id="paint0_linear_104_2429" x1="36" y1="0" x2="36" y2="72" gradientUnits="userSpaceOnUse">
            <stop stop-color="#CAFF33"/>
            <stop offset="1" stop-color="#CAFF33" stop-opacity="0"/>
            </linearGradient>
            <linearGradient id="paint1_linear_104_2429" x1="36" y1="-29.0811" x2="36" y2="152.541" gradientUnits="userSpaceOnUse">
            <stop stop-color="#CAFF33"/>
            <stop offset="0.467671" stop-color="#CAFF33" stop-opacity="0"/>
            </linearGradient>
            <linearGradient id="paint2_linear_104_2429" x1="36" y1="-89.2432" x2="36" y2="114.703" gradientUnits="userSpaceOnUse">
            <stop stop-color="#CAFF33"/>
            <stop offset="0.716291" stop-color="#CAFF33" stop-opacity="0"/>
            </linearGradient>
            </defs>
            </svg>
        </g>
    </symbol>

    <symbol id="btn-menu" viewBox="0 0 21 14">
        <path fill-rule="evenodd" clip-rule="evenodd" d="M0 0.875C0 0.391751 0.391751 0 0.875 0H20.125C20.6082 0 21 0.391751 21 0.875C21 1.35825 20.6082 1.75 20.125 1.75H0.875C0.391751 1.75 0 1.35825 0 0.875ZM0 7C0 6.51675 0.391751 6.125 0.875 6.125H20.125C20.6082 6.125 21 6.51675 21 7C21 7.48325 20.6082 7.875 20.125 7.875H0.875C0.391751 7.875 0 7.48325 0 7ZM9.625 13.125C9.625 12.6418 10.0168 12.25 10.5 12.25H20.125C20.6082 12.25 21 12.6418 21 13.125C21 13.6082 20.6082 14 20.125 14H10.5C10.0168 14 9.625 13.6082 9.625 13.125Z" fill="#333333"/>
    </symbol>

    <symbol id="icon-chain" viewBox="0 0 76 76">
        <g>
            <svg width="76" height="76" viewBox="0 0 76 76" fill="none" xmlns="http://www.w3.org/2000/svg">
            <rect width="72" height="72" rx="36" fill="url(#paint0_linear_113_9598)" fill-opacity="0.05"/>
            <rect x="8" y="8" width="56" height="56" rx="28" fill="url(#paint1_linear_113_9598)" fill-opacity="0.1"/>
            <rect x="8.5" y="8.5" width="55" height="55" rx="27.5" stroke="url(#paint2_linear_113_9598)" stroke-opacity="0.2"/>
            <path fill-rule="evenodd" clip-rule="evenodd" d="M26.25 26.25C25.8358 26.25 25.5 26.5858 25.5 27C25.5 27.4142 25.8358 27.75 26.25 27.75H27V38.25C27 39.9069 28.3431 41.25 30 41.25H31.2094L30.0385 44.7628C29.9075 45.1558 30.1199 45.5805 30.5128 45.7115C30.9058 45.8425 31.3305 45.6301 31.4615 45.2372L31.7906 44.25H40.2094L40.5385 45.2372C40.6695 45.6301 41.0942 45.8425 41.4872 45.7115C41.8801 45.5805 42.0925 45.1558 41.9615 44.7628L40.7906 41.25H42C43.6569 41.25 45 39.9069 45 38.25V27.75H45.75C46.1642 27.75 46.5 27.4142 46.5 27C46.5 26.5858 46.1642 26.25 45.75 26.25H26.25ZM32.2906 42.75L32.7906 41.25H39.2094L39.7094 42.75H32.2906ZM39.75 30.75C39.75 30.3358 39.4142 30 39 30C38.5858 30 38.25 30.3358 38.25 30.75V36.75C38.25 37.1642 38.5858 37.5 39 37.5C39.4142 37.5 39.75 37.1642 39.75 36.75V30.75ZM36.75 33C36.75 32.5858 36.4142 32.25 36 32.25C35.5858 32.25 35.25 32.5858 35.25 33V36.75C35.25 37.1642 35.5858 37.5 36 37.5C36.4142 37.5 36.75 37.1642 36.75 36.75V33ZM33.75 35.25C33.75 34.8358 33.4142 34.5 33 34.5C32.5858 34.5 32.25 34.8358 32.25 35.25V36.75C32.25 37.1642 32.5858 37.5 33 37.5C33.4142 37.5 33.75 37.1642 33.75 36.75V35.25Z" fill="#CAFF33"/>
            <defs>
            <linearGradient id="paint0_linear_113_9598" x1="36" y1="0" x2="36" y2="72" gradientUnits="userSpaceOnUse">
            <stop stop-color="#CAFF33"/>
            <stop offset="1" stop-color="#CAFF33" stop-opacity="0"/>
            </linearGradient>
            <linearGradient id="paint1_linear_113_9598" x1="36" y1="-29.0811" x2="36" y2="152.541" gradientUnits="userSpaceOnUse">
            <stop stop-color="#CAFF33"/>
            <stop offset="0.467671" stop-color="#CAFF33" stop-opacity="0"/>
            </linearGradient>
            <linearGradient id="paint2_linear_113_9598" x1="36" y1="-89.2432" x2="36" y2="114.703" gradientUnits="userSpaceOnUse">
            <stop stop-color="#CAFF33"/>
            <stop offset="0.716291" stop-color="#CAFF33" stop-opacity="0"/>
            </linearGradient>
            </defs>
            </svg>
        </g>
    </symbol>

    <symbol id="icon-lompochka" viewBox="0 0 76 76">
        <g>
            <svg width="76" height="76" viewBox="0 0 76 76" fill="none" xmlns="http://www.w3.org/2000/svg">
            <rect width="76" height="76" rx="38" fill="url(#paint0_linear_113_7210)" fill-opacity="0.05"/>
            <rect x="8" y="8" width="60" height="60" rx="30" fill="url(#paint1_linear_113_7210)" fill-opacity="0.1"/>
            <rect x="8.5" y="8.5" width="59" height="59" rx="29.5" stroke="url(#paint2_linear_113_7210)" stroke-opacity="0.2"/>
            <path d="M38 24.875C32.6843 24.875 28.375 29.1843 28.375 34.5C28.375 38.0592 30.3074 41.1661 33.176 42.8305C33.9757 43.2945 34.4765 44.0065 34.4992 44.723C34.5117 45.1182 34.7877 45.4559 35.1725 45.5469C35.5824 45.6437 36.0002 45.72 36.4245 45.7745C36.8021 45.823 37.1252 45.5206 37.1252 45.14V39.7021C36.7527 39.6609 36.3877 39.5937 36.0321 39.5021C35.5641 39.3817 35.2824 38.9046 35.4028 38.4367C35.5233 37.9687 36.0003 37.6869 36.4683 37.8074C36.9569 37.9331 37.4701 38.0002 38.0002 38.0002C38.5304 38.0002 39.0435 37.9331 39.5321 37.8074C40.0001 37.6869 40.4771 37.9687 40.5976 38.4367C40.718 38.9046 40.4363 39.3817 39.9683 39.5021C39.6127 39.5937 39.2477 39.6609 38.8752 39.7021V45.1399C38.8752 45.5206 39.1984 45.823 39.5759 45.7745C40.0001 45.72 40.4177 45.6437 40.8275 45.5469C41.2123 45.4559 41.4883 45.1182 41.5008 44.723C41.5235 44.0065 42.0243 43.2945 42.824 42.8305C45.6926 41.1661 47.625 38.0592 47.625 34.5C47.625 29.1843 43.3157 24.875 38 24.875Z" fill="#CAFF33"/>
            <path fill-rule="evenodd" clip-rule="evenodd" d="M34.5153 47.2163C34.6054 46.7415 35.0633 46.4296 35.5381 46.5197C36.3349 46.6708 37.1578 46.75 38 46.75C38.8422 46.75 39.6651 46.6708 40.4619 46.5197C40.9367 46.4296 41.3946 46.7415 41.4847 47.2163C41.5747 47.691 41.2629 48.1489 40.7881 48.239C39.8843 48.4104 38.9522 48.5 38 48.5C37.0478 48.5 36.1157 48.4104 35.2119 48.239C34.7371 48.1489 34.4253 47.691 34.5153 47.2163Z" fill="#CAFF33"/>
            <path fill-rule="evenodd" clip-rule="evenodd" d="M35.3797 50.068C35.43 49.5873 35.8604 49.2385 36.341 49.2887C36.886 49.3458 37.4394 49.375 38 49.375C38.5606 49.375 39.114 49.3458 39.659 49.2887C40.1396 49.2385 40.57 49.5873 40.6203 50.068C40.6705 50.5486 40.3217 50.979 39.841 51.0292C39.2357 51.0926 38.6215 51.125 38 51.125C37.3785 51.125 36.7643 51.0926 36.159 51.0292C35.6783 50.979 35.3295 50.5486 35.3797 50.068Z" fill="#CAFF33"/>
            <defs>
            <linearGradient id="paint0_linear_113_7210" x1="38" y1="0" x2="38" y2="76" gradientUnits="userSpaceOnUse">
            <stop stop-color="#CAFF33"/>
            <stop offset="1" stop-color="#CAFF33" stop-opacity="0"/>
            </linearGradient>
            <linearGradient id="paint1_linear_113_7210" x1="38" y1="-31.7297" x2="38" y2="162.865" gradientUnits="userSpaceOnUse">
            <stop stop-color="#CAFF33"/>
            <stop offset="0.467671" stop-color="#CAFF33" stop-opacity="0"/>
            </linearGradient>
            <linearGradient id="paint2_linear_113_7210" x1="38" y1="-96.1892" x2="38" y2="122.324" gradientUnits="userSpaceOnUse">
            <stop stop-color="#CAFF33"/>
            <stop offset="0.716291" stop-color="#CAFF33" stop-opacity="0"/>
            </linearGradient>
            </defs>
            </svg>
        </g>
    </symbol>

    <symbol id="icon-sumka" viewBox="0 0 76 76">
        <g>
            <svg width="76" height="76" viewBox="0 0 76 76" fill="none" xmlns="http://www.w3.org/2000/svg">
            <rect width="76" height="76" rx="38" fill="url(#paint0_linear_113_7220)" fill-opacity="0.05"/>
            <rect x="8" y="8" width="60" height="60" rx="30" fill="url(#paint1_linear_113_7220)" fill-opacity="0.1"/>
            <rect x="8.5" y="8.5" width="59" height="59" rx="29.5" stroke="url(#paint2_linear_113_7220)" stroke-opacity="0.2"/>
            <path fill-rule="evenodd" clip-rule="evenodd" d="M32.75 30.125C32.75 28.192 34.317 26.625 36.25 26.625H39.75C41.683 26.625 43.25 28.192 43.25 30.125V30.3641C44.3379 30.4637 45.417 30.594 46.4864 30.754C48.1828 31.0078 49.375 32.4836 49.375 34.1566V37.6954C49.375 39.1084 48.5191 40.4398 47.116 40.9063C44.2494 41.8593 41.184 42.375 38 42.375C34.816 42.375 31.7507 41.8593 28.884 40.9062C27.4809 40.4398 26.625 39.1083 26.625 37.6953V34.1566C26.625 32.4836 27.8172 31.0078 29.5136 30.754C30.583 30.594 31.6621 30.4637 32.75 30.3641V30.125ZM41.5 30.125V30.231C40.3423 30.1607 39.1753 30.125 38 30.125C36.8248 30.125 35.6577 30.1607 34.5 30.231V30.125C34.5 29.1585 35.2835 28.375 36.25 28.375H39.75C40.7165 28.375 41.5 29.1585 41.5 30.125ZM38 39.75C38.4832 39.75 38.875 39.3583 38.875 38.875C38.875 38.3918 38.4832 38 38 38C37.5168 38 37.125 38.3918 37.125 38.875C37.125 39.3583 37.5168 39.75 38 39.75Z" fill="#CAFF33"/>
            <path d="M27.5 45.4666V42.2046C27.7602 42.3473 28.0378 42.4691 28.3319 42.5669C31.3743 43.5784 34.626 44.125 38 44.125C41.374 44.125 44.6257 43.5784 47.6681 42.5669C47.9622 42.4691 48.2398 42.3473 48.5 42.2046V45.4666C48.5 47.1605 47.2782 48.6487 45.5563 48.8773C43.0838 49.2056 40.5615 49.375 38 49.375C35.4385 49.375 32.9162 49.2056 30.4437 48.8773C28.7218 48.6487 27.5 47.1605 27.5 45.4666Z" fill="#CAFF33"/>
            <defs>
            <linearGradient id="paint0_linear_113_7220" x1="38" y1="0" x2="38" y2="76" gradientUnits="userSpaceOnUse">
            <stop stop-color="#CAFF33"/>
            <stop offset="1" stop-color="#CAFF33" stop-opacity="0"/>
            </linearGradient>
            <linearGradient id="paint1_linear_113_7220" x1="38" y1="-31.7297" x2="38" y2="162.865" gradientUnits="userSpaceOnUse">
            <stop stop-color="#CAFF33"/>
            <stop offset="0.467671" stop-color="#CAFF33" stop-opacity="0"/>
            </linearGradient>
            <linearGradient id="paint2_linear_113_7220" x1="38" y1="-96.1892" x2="38" y2="122.324" gradientUnits="userSpaceOnUse">
            <stop stop-color="#CAFF33"/>
            <stop offset="0.716291" stop-color="#CAFF33" stop-opacity="0"/>
            </linearGradient>
            </defs>
            </svg>

        </g>
    </symbol>

    <symbol id="icon-fff" viewBox="0 0 76 76">
        <rect width="76" height="76" rx="38" fill="url(#paint0_linear_113_7229)" fill-opacity="0.05"/>
        <rect x="8" y="8" width="60" height="60" rx="30" fill="url(#paint1_linear_113_7229)" fill-opacity="0.1"/>
        <rect x="8.5" y="8.5" width="59" height="59" rx="29.5" stroke="url(#paint2_linear_113_7229)" stroke-opacity="0.2"/>
        <path fill-rule="evenodd" clip-rule="evenodd" d="M25.75 35.4711V37.5625C25.75 38.7706 26.7294 39.75 27.9375 39.75H48.0625C49.2706 39.75 50.25 38.7706 50.25 37.5625V35.4711C50.25 34.6356 49.9511 33.8276 49.4074 33.1933L45.5751 28.7222C44.9101 27.9465 43.9394 27.5 42.9177 27.5H33.0823C32.0606 27.5 31.0899 27.9465 30.4249 28.7222L26.5926 33.1933C26.0489 33.8276 25.75 34.6356 25.75 35.4711ZM33.0823 29.25C32.5715 29.25 32.0861 29.4732 31.7536 29.8611L28.5274 33.625H32.2201C33.3904 33.625 34.4832 34.2099 35.1323 35.1835L35.3238 35.4707C35.6483 35.9576 36.1947 36.25 36.7799 36.25H39.2201C39.8053 36.25 40.3517 35.9576 40.6762 35.4707L40.8677 35.1835C41.5168 34.2099 42.6096 33.625 43.7799 33.625H47.4726L44.2464 29.8611C43.9139 29.4732 43.4285 29.25 42.9177 29.25H33.0823Z" fill="#CAFF33"/>
        <path d="M27.2812 41.5C26.4356 41.5 25.75 42.1856 25.75 43.0312V45C25.75 46.933 27.317 48.5 29.25 48.5H46.75C48.683 48.5 50.25 46.933 50.25 45V43.0312C50.25 42.1856 49.5644 41.5 48.7188 41.5H43.7799C42.6096 41.5 41.5168 42.0849 40.8677 43.0585L40.6762 43.3457C40.3517 43.8326 39.8053 44.125 39.2201 44.125H36.7799C36.1947 44.125 35.6483 43.8326 35.3238 43.3457L35.1323 43.0585C34.4832 42.0849 33.3904 41.5 32.2201 41.5H27.2812Z" fill="#CAFF33"/>
        <defs>
        <linearGradient id="paint0_linear_113_7229" x1="38" y1="0" x2="38" y2="76" gradientUnits="userSpaceOnUse">
        <stop stop-color="#CAFF33"/>
        <stop offset="1" stop-color="#CAFF33" stop-opacity="0"/>
        </linearGradient>
        <linearGradient id="paint1_linear_113_7229" x1="38" y1="-31.7297" x2="38" y2="162.865" gradientUnits="userSpaceOnUse">
        <stop stop-color="#CAFF33"/>
        <stop offset="0.467671" stop-color="#CAFF33" stop-opacity="0"/>
        </linearGradient>
        <linearGradient id="paint2_linear_113_7229" x1="38" y1="-96.1892" x2="38" y2="122.324" gradientUnits="userSpaceOnUse">
        <stop stop-color="#CAFF33"/>
        <stop offset="0.716291" stop-color="#CAFF33" stop-opacity="0"/>
        </linearGradient>
        </defs>
    </symbol>


</svg>